<svg id="Capa_2" data-name="Capa 2" xmlns="http://www.w3.org/2000/svg" xmlns:xlink="http://www.w3.org/1999/xlink" viewBox="0 0 10.41 10.41"><defs><style>.cls-1{fill:url(#Orquídea);}.cls-2{fill:url(#Orquídea-2);}.cls-3{fill:url(#Orquídea-3);}.cls-4{fill:url(#Orquídea-4);}</style><linearGradient id="Orquídea" x1="679.89" y1="428.51" x2="802.6" y2="425.6" gradientTransform="translate(508.99 -370.87) rotate(45)" gradientUnits="userSpaceOnUse"><stop offset="0" stop-color="#ff7bac"/><stop offset="0.22" stop-color="#ff7bac" stop-opacity="0.76"/><stop offset="0.6" stop-color="#ff7bac" stop-opacity="0.36"/><stop offset="0.87" stop-color="#ff7bac" stop-opacity="0.1"/><stop offset="1" stop-color="#ff7bac" stop-opacity="0"/></linearGradient><linearGradient id="Orquídea-2" x1="679.79" y1="424.2" x2="802.5" y2="421.3" xlink:href="#Orquídea"/><linearGradient id="Orquídea-3" x1="679.89" y1="428.68" x2="802.6" y2="425.78" xlink:href="#Orquídea"/><linearGradient id="Orquídea-4" x1="680" y1="432.99" x2="802.71" y2="430.09" xlink:href="#Orquídea"/></defs><title>logo</title><path class="cls-1" d="M703.49,423.77l-5.2,5.2a5.19,5.19,0,0,1,5.2-5.2Z" transform="translate(-698.29 -423.77)"/><path class="cls-2" d="M708.7,429l-5.21-5.2a5.22,5.22,0,0,1,5.21,5.2Z" transform="translate(-698.29 -423.77)"/><path class="cls-3" d="M707.17,432.65a5.14,5.14,0,0,1-3.67,1.52l5.2-5.2A5.17,5.17,0,0,1,707.17,432.65Z" transform="translate(-698.29 -423.77)"/><path class="cls-4" d="M703.5,434.17a5.17,5.17,0,0,1-5.21-5.2Z" transform="translate(-698.29 -423.77)"/></svg>